<?xml version="1.0" standalone="no"?><!DOCTYPE svg PUBLIC "-//W3C//DTD SVG 1.1//EN" "http://www.w3.org/Graphics/SVG/1.1/DTD/svg11.dtd"><svg t="1736150557664" class="icon" viewBox="0 0 1036 1024" version="1.1" xmlns="http://www.w3.org/2000/svg" p-id="17855" xmlns:xlink="http://www.w3.org/1999/xlink" width="259" height="256"><path d="M883.0464 76.8h-102.4V51.2c0-28.16-23.04-51.2-51.2-51.2s-51.2 23.04-51.2 51.2v25.6h-307.2V51.2c0-28.16-23.04-51.2-51.2-51.2s-51.2 23.04-51.2 51.2v25.6h-102.4c-84.48 0-153.6 69.12-153.6 153.6v640c0 84.48 69.12 153.6 153.6 153.6h716.8c84.48 0 153.6-69.12 153.6-153.6V230.4c0-84.48-69.12-153.6-153.6-153.6z m-716.8 102.4h102.4v25.6c0 28.16 23.04 51.2 51.2 51.2s51.2-23.04 51.2-51.2v-25.6h307.2v25.6c0 28.16 23.04 51.2 51.2 51.2s51.2-23.04 51.2-51.2v-25.6h102.4c28.16 0 51.2 23.04 51.2 51.2v76.8h-819.2v-76.8c0-28.16 23.04-51.2 51.2-51.2z m716.8 742.4h-716.8c-28.16 0-51.2-23.04-51.2-51.2V409.6h819.2v460.8c0 28.16-23.04 51.2-51.2 51.2z m-102.4-409.6h-512c-28.16 0-51.2 23.04-51.2 51.2s23.04 51.2 51.2 51.2h512c28.16 0 51.2-23.04 51.2-51.2s-23.04-51.2-51.2-51.2z m-204.8 204.8h-307.2c-28.16 0-51.2 23.04-51.2 51.2s23.04 51.2 51.2 51.2h307.2c28.16 0 51.2-23.04 51.2-51.2s-23.04-51.2-51.2-51.2z" fill="#FF4A4A" p-id="17856"></path></svg>