<?xml version="1.0" standalone="no"?><!DOCTYPE svg PUBLIC "-//W3C//DTD SVG 1.1//EN" "http://www.w3.org/Graphics/SVG/1.1/DTD/svg11.dtd"><svg t="1735889164554" class="icon" viewBox="0 0 1024 1024" version="1.1" xmlns="http://www.w3.org/2000/svg" p-id="3422" xmlns:xlink="http://www.w3.org/1999/xlink" width="256" height="256"><path d="M512 512.2m-448 0a448 448 0 1 0 896 0 448 448 0 1 0-896 0Z" fill="#FFE8EB" p-id="3423"></path><path d="M528.6 381.6h-37.3c-10.3 0-18.7-8.4-18.7-18.7 0-10.3 8.4-18.7 18.7-18.7h37.3c10.3 0 18.7 8.4 18.7 18.7 0 10.3-8.4 18.7-18.7 18.7z" fill="#FF6B6A" p-id="3424"></path><path d="M640.6 400.2H379.3c-10.3 0-18.7-8.4-18.7-18.7 0-10.3 8.4-18.7 18.7-18.7h261.3c10.3 0 18.7 8.4 18.7 18.7 0 10.4-8.4 18.7-18.7 18.7zM600.6 680.2H419.3c-22.1 0-40-17.9-40-40V458.9c0-22.1 17.9-40 40-40h181.3c22.1 0 40 17.9 40 40v181.3c0 22.1-17.9 40-40 40z" fill="#FF6B6A" p-id="3425"></path><path d="M466.9 502.5v111.6c0 4.4 3.6 8 8 8s8-3.6 8-8V502.5c0-4.4-3.6-8-8-8s-8 3.6-8 8zM541.5 502.5v111.6c0 4.4 3.6 8 8 8s8-3.6 8-8V502.5c0-4.4-3.6-8-8-8s-8 3.6-8 8z" fill="#FF8788" p-id="3426"></path></svg>