<?xml version="1.0" standalone="no"?><!DOCTYPE svg PUBLIC "-//W3C//DTD SVG 1.1//EN" "http://www.w3.org/Graphics/SVG/1.1/DTD/svg11.dtd"><svg t="1735909191536" class="icon" viewBox="0 0 1024 1024" version="1.1" xmlns="http://www.w3.org/2000/svg" p-id="8545" xmlns:xlink="http://www.w3.org/1999/xlink" width="256" height="256"><path d="M512 252c-99.252 0-180 80.748-180 180s80.748 180 180 180 180-80.748 180-180-80.748-180-180-180m0-60c132.548 0 240 107.454 240 240 0 132.548-107.452 240-240 240-132.546 0-240-107.452-240-240S379.452 192 512 192zM802 832H222c-16.568 0-30-13.432-30-30s13.432-30 30-30h580c16.568 0 30 13.432 30 30s-13.432 30-30 30z" fill="#1F48D1" p-id="8546"></path><path d="M512 278c85.052 0 154 68.95 154 154 0 85.052-68.948 154-154 154-85.05 0-154-68.948-154-154s68.948-154 154-154z" fill="#DFEAFF" p-id="8547"></path></svg>