<?xml version="1.0" standalone="no"?><!DOCTYPE svg PUBLIC "-//W3C//DTD SVG 1.1//EN" "http://www.w3.org/Graphics/SVG/1.1/DTD/svg11.dtd"><svg t="1736078792315" class="icon" viewBox="0 0 1024 1024" version="1.1" xmlns="http://www.w3.org/2000/svg" p-id="9409" xmlns:xlink="http://www.w3.org/1999/xlink" width="256" height="256"><path d="M512 888c207.66 0 376-168.34 376-376S719.66 136 512 136 136 304.34 136 512s168.34 376 376 376z m0 72C264.576 960 64 759.424 64 512S264.576 64 512 64s448 200.576 448 448-200.576 448-448 448z" fill="#5090F1" p-id="9410"></path><path d="M304 512m-64 0a64 64 0 1 0 128 0 64 64 0 1 0-128 0Z" fill="#5090F1" p-id="9411"></path><path d="M512 512m-64 0a64 64 0 1 0 128 0 64 64 0 1 0-128 0Z" fill="#5090F1" p-id="9412"></path><path d="M720 512m-64 0a64 64 0 1 0 128 0 64 64 0 1 0-128 0Z" fill="#5090F1" p-id="9413"></path></svg>