<?xml version="1.0" standalone="no"?><!DOCTYPE svg PUBLIC "-//W3C//DTD SVG 1.1//EN" "http://www.w3.org/Graphics/SVG/1.1/DTD/svg11.dtd"><svg t="1735974071355" class="icon" viewBox="0 0 1024 1024" version="1.1" xmlns="http://www.w3.org/2000/svg" p-id="14768" xmlns:xlink="http://www.w3.org/1999/xlink" width="256" height="256"><path d="M833.828571 303.542857c-3.657143 3.657143-5.485714 7.314286-5.485714 12.8 0 5.485714 1.828571 9.142857 5.485714 12.8 3.657143 3.657143 7.314286 5.485714 12.8 5.485714 5.485714 0 9.142857-1.828571 12.8-5.485714 3.657143-3.657143 5.485714-7.314286 5.485715-12.8 0-5.485714-1.828571-9.142857-5.485715-12.8-7.314286-7.314286-20.114286-7.314286-25.6 0zM310.857143 802.742857h-107.885714c-14.628571 0-25.6-7.314286-25.6-14.628571V235.885714c0-7.314286 10.971429-14.628571 25.6-14.628571h597.942857c14.628571 0 25.6 7.314286 25.6 14.628571v21.942857c0 10.971429 7.314286 18.285714 18.285714 18.285715s18.285714-7.314286 18.285714-18.285715V235.885714c0-27.428571-27.428571-51.2-62.171428-51.2H202.971429c-34.742857 0-62.171429 23.771429-62.171429 51.2v552.228572c0 27.428571 27.428571 51.2 62.171429 51.2H310.857143c10.971429 0 18.285714-7.314286 18.285714-18.285715s-7.314286-18.285714-18.285714-18.285714z" fill="#1A1A1A" p-id="14769"></path><path d="M248.685714 338.285714c-10.971429 0-18.285714 7.314286-18.285714 18.285715s7.314286 18.285714 18.285714 18.285714h215.771429c10.971429 0 18.285714-7.314286 18.285714-18.285714s-7.314286-18.285714-18.285714-18.285715H248.685714zM374.857143 499.2h-124.342857c-10.971429 0-18.285714 7.314286-18.285715 18.285714s7.314286 18.285714 18.285715 18.285715h124.342857c10.971429 0 18.285714-7.314286 18.285714-18.285715s-9.142857-18.285714-18.285714-18.285714zM374.857143 661.942857h-124.342857c-10.971429 0-18.285714 7.314286-18.285715 18.285714s7.314286 18.285714 18.285715 18.285715h124.342857c10.971429 0 18.285714-7.314286 18.285714-18.285715s-9.142857-18.285714-18.285714-18.285714zM833.828571 517.485714c0-98.742857-80.457143-181.028571-181.028571-181.028571-98.742857 0-181.028571 80.457143-181.028571 181.028571 0 51.2 21.942857 100.571429 60.342857 133.485715 7.314286 7.314286 18.285714 5.485714 25.6-1.828572 7.314286-7.314286 5.485714-18.285714-1.828572-25.6-31.085714-27.428571-47.542857-65.828571-47.542857-106.057143 0-78.628571 64-144.457143 144.457143-144.457143s144.457143 64 144.457143 144.457143-64 144.457143-144.457143 144.457143c-98.742857 0-190.171429 58.514286-232.228571 148.114286-3.657143 9.142857 0 20.114286 9.142857 23.771428 1.828571 1.828571 5.485714 1.828571 7.314285 1.828572 7.314286 0 12.8-3.657143 16.457143-10.971429 36.571429-76.8 115.2-126.171429 199.314286-126.171428 100.571429 0 181.028571-80.457143 181.028571-181.028572zM886.857143 810.057143c-21.942857-47.542857-58.514286-85.942857-104.228572-113.371429-9.142857-5.485714-20.114286-1.828571-25.6 7.314286-5.485714 9.142857-1.828571 20.114286 7.314286 25.6 38.4 21.942857 69.485714 56.685714 89.6 96.914286 3.657143 7.314286 9.142857 10.971429 16.457143 10.971428 1.828571 0 5.485714 0 7.314286-1.828571 9.142857-5.485714 12.8-16.457143 9.142857-25.6z" fill="#1A1A1A" p-id="14770"></path><path d="M757.028571 548.571429c3.657143-9.142857-3.657143-20.114286-12.8-21.942858-9.142857-3.657143-20.114286 3.657143-21.942857 12.8-9.142857 29.257143-36.571429 51.2-67.657143 51.2-31.085714 0-58.514286-20.114286-67.657142-51.2-3.657143-9.142857-12.8-14.628571-21.942858-12.8-9.142857 3.657143-14.628571 12.8-12.8 21.942858 12.8 45.714286 54.857143 76.8 102.4 76.8 45.714286 0 87.771429-32.914286 102.4-76.8z" fill="#1A1A1A" p-id="14771"></path></svg>