<?xml version="1.0" standalone="no"?><!DOCTYPE svg PUBLIC "-//W3C//DTD SVG 1.1//EN" "http://www.w3.org/Graphics/SVG/1.1/DTD/svg11.dtd"><svg t="1736151116394" class="icon" viewBox="0 0 1024 1024" version="1.1" xmlns="http://www.w3.org/2000/svg" p-id="20987" xmlns:xlink="http://www.w3.org/1999/xlink" width="256" height="256"><path d="M119.1 607.3V309.6c0-56.1 44.1-95.3 107.2-95.3h628.2l-81.9 81.9c-14 14-14 36.6 0 50.5 7 7 16.1 10.5 25.3 10.5s18.3-3.5 25.3-10.5L939 230.9l2.9-2.2 1.8-2.7c11.7-13.1 18.1-29.9 18-47.6 0-19.1-7.5-37-21-50.4L823 10.5c-14-14-36.6-14-50.5 0-14 13.9-14 36.6 0 50.5l81.9 81.9H226.2c-101.8 0-178.6 71.7-178.6 166.7v297.7c0 19.7 16 35.7 35.7 35.7 19.8 0 35.8-16 35.8-35.7zM940.7 381c-19.7 0-35.7 16-35.7 35.7v273.9c0 62.3-51.1 119.1-107.2 119.1H169.6l81.9-81.9c13.9-14 13.9-36.6 0-50.5-14-14-36.6-14-50.5 0L83.3 795c-27.8 27.9-27.7 73.2 0.2 101L201 1013.5c7 7 16.1 10.5 25.3 10.5s18.3-3.5 25.3-10.5c14-14 14-36.6 0-50.5l-81.9-81.9h628.2c95.1 0 178.6-89 178.6-190.5V416.7c-0.1-19.7-16.1-35.7-35.8-35.7z" fill="#27D0D8" p-id="20988"></path></svg>